<svg width="61" height="60" viewBox="0 0 61 60" fill="none" xmlns="http://www.w3.org/2000/svg">
<rect opacity="0.1" x="0.333252" width="60" height="60" rx="10" fill="#636CDF"/>
<g opacity="0.6" filter="url(#filter0_f_448_106)">
<ellipse cx="30" cy="47" rx="11" ry="3" fill="#636CDF"/>
</g>
<g clip-path="url(#clip0_448_106)">
<path d="M35.1284 15C34.75 15.6718 34.4103 16.3667 34.1014 17.0771C31.1672 16.637 28.179 16.637 25.2371 17.0771C24.936 16.3667 24.5885 15.6718 24.2101 15C21.4535 15.471 18.7664 16.2972 16.2183 17.4632C11.1685 24.9453 9.80175 32.2344 10.4813 39.4232C13.4386 41.6084 16.7511 43.2762 20.2799 44.3418C21.0752 43.2762 21.7779 42.1412 22.3801 40.9598C21.2373 40.5351 20.1331 40.0023 19.0753 39.3846C19.3533 39.1838 19.6235 38.9754 19.8861 38.7746C26.0865 41.6933 33.2675 41.6933 39.4756 38.7746C39.7381 38.9908 40.0084 39.1993 40.2863 39.3846C39.2285 40.01 38.1243 40.5351 36.9738 40.9675C37.5761 42.1489 38.2787 43.284 39.0741 44.3495C42.6027 43.284 45.9152 41.6238 48.8728 39.4386C49.6757 31.0994 47.4983 23.872 43.12 17.4709C40.5798 16.305 37.8927 15.4787 35.1361 15.0154L35.1284 15ZM23.2449 34.9988C21.3377 34.9988 19.7548 33.2691 19.7548 31.1303C19.7548 28.9914 21.2759 27.2541 23.2372 27.2541C25.1985 27.2541 26.7582 28.9991 26.7273 31.1303C26.6965 33.2614 25.1908 34.9988 23.2449 34.9988ZM36.109 34.9988C34.194 34.9988 32.6266 33.2691 32.6266 31.1303C32.6266 28.9914 34.1477 27.2541 36.109 27.2541C38.0703 27.2541 39.6223 28.9991 39.5914 31.1303C39.5605 33.2614 38.0548 34.9988 36.109 34.9988Z" fill="#5865F2"/>
</g>
<defs>
<filter id="filter0_f_448_106" x="9" y="34" width="42" height="26" filterUnits="userSpaceOnUse" color-interpolation-filters="sRGB">
<feFlood flood-opacity="0" result="BackgroundImageFix"/>
<feBlend mode="normal" in="SourceGraphic" in2="BackgroundImageFix" result="shape"/>
<feGaussianBlur stdDeviation="5" result="effect1_foregroundBlur_448_106"/>
</filter>
<clipPath id="clip0_448_106">
<rect width="38.7181" height="29.3495" fill="white" transform="translate(10.3188 15)"/>
</clipPath>
</defs>
</svg>
